<svg aria-hidden="true" style="position: absolute; width: 0; height: 0; overflow: hidden;" version="1.1" xmlns="http://www.w3.org/2000/svg" xmlns:xlink="http://www.w3.org/1999/xlink">
<defs>
<symbol id="icon-logo" viewBox="0 0 208 32">
<path fill="#3470ff" style="fill: var(--color1, #3470ff)" d="M202.142 15.29c-1.366 0-2.614 0.080-3.744 0.238-1.38 0.211-2.614 0.54-3.791 0.986l0.127-0.042v15.054h-6.858v-22.382h5.084l1.024 2.64c1.366-1.102 2.706-1.89 4.020-2.364 1.215-0.449 2.619-0.708 4.083-0.708 0.019 0 0.038 0 0.057 0h-0.003v6.58zM184.598 31.29c-0.84 0.184-1.59 0.316-2.248 0.394-0.63 0.080-1.38 0.12-2.246 0.12-2.52 0-4.178-0.816-4.966-2.444-0.954 0.726-2.046 1.349-3.216 1.819l-0.094 0.033c-1.044 0.399-2.252 0.631-3.514 0.631-0.040 0-0.079-0-0.118-0.001l0.006 0c-0.032 0.001-0.069 0.001-0.106 0.001-1.127 0-2.189-0.277-3.123-0.767l0.037 0.018c-0.913-0.472-1.659-1.155-2.192-1.987l-0.014-0.023c-0.494-0.772-0.788-1.715-0.788-2.725 0-0.012 0-0.024 0-0.037v0.002c0-1.68 0.42-3.008 1.26-3.98 0.868-0.998 2.024-1.786 3.468-2.364 1.446-0.604 3.64-1.326 6.582-2.168l1.182-0.354v-0.158c0-2.416-1.104-3.626-3.31-3.626-1.078 0-2.234 0.238-3.468 0.71-1.234 0.474-2.654 1.236-4.256 2.286l-1.3-4.73c1.555-0.919 3.354-1.733 5.244-2.349l0.195-0.055c1.736-0.55 3.732-0.866 5.802-0.866 0.039 0 0.077 0 0.116 0l-0.006-0c2.52 0 4.452 0.684 5.792 2.050 1.366 1.366 2.050 3.704 2.050 7.014v7.488c0 0.578 0.118 0.998 0.354 1.26 0.236 0.238 0.618 0.356 1.144 0.356 0.5 0 0.998-0.066 1.496-0.198l0.236 4.65zM168.872 25.418c0 0.526 0.132 0.908 0.394 1.144 0.29 0.236 0.736 0.354 1.34 0.354 1.104 0 2.404-0.472 3.902-1.42v-4.176l-0.59 0.198c-1.972 0.708-3.312 1.34-4.020 1.89-0.684 0.526-1.026 1.196-1.026 2.010zM150.364 32c-3.258 0-6.016-0.63-8.276-1.892-2.26-1.286-3.954-2.98-5.084-5.084-1.043-1.978-1.655-4.323-1.655-6.81 0-0.044 0-0.088 0.001-0.132l-0 0.007c0-2.47 0.578-4.754 1.734-6.856 1.18-2.102 2.93-3.784 5.24-5.044 2.312-1.262 5.098-1.892 8.356-1.892 3.048 0 5.728 0.59 8.040 1.772l-1.42 4.966c-0.863-0.455-1.871-0.857-2.923-1.153l-0.111-0.027c-1.050-0.318-2.246-0.474-3.586-0.474-1.708 0-3.192 0.394-4.454 1.18-1.227 0.764-2.197 1.836-2.816 3.11l-0.020 0.044c-0.632 1.314-0.946 2.786-0.946 4.414 0 2.574 0.682 4.69 2.048 6.344 1.366 1.63 3.324 2.444 5.872 2.444 2.18 0 4.532-0.54 7.054-1.616l1.34 4.848c-1.076 0.552-2.364 1-3.86 1.34-1.5 0.34-3.010 0.512-4.534 0.512z"></path>
<path fill="#101828" style="fill: var(--color2, #101828)" d="M123.568 0h6.856v31.528h-6.856v-31.528zM120.288 31.29c-0.84 0.184-1.59 0.316-2.246 0.394-0.632 0.080-1.38 0.12-2.246 0.12-2.524 0-4.18-0.816-4.966-2.444-0.954 0.726-2.046 1.349-3.216 1.819l-0.094 0.033c-1.044 0.399-2.252 0.631-3.514 0.631-0.040 0-0.079-0-0.118-0.001l0.006 0c-0.032 0.001-0.069 0.001-0.106 0.001-1.127 0-2.189-0.277-3.123-0.767l0.037 0.018c-0.914-0.472-1.661-1.155-2.195-1.987l-0.013-0.023c-0.494-0.772-0.788-1.714-0.788-2.725 0-0.012 0-0.025 0-0.037v0.002c0-1.68 0.42-3.008 1.26-3.98 0.868-0.998 2.024-1.786 3.47-2.364 1.444-0.604 3.64-1.326 6.58-2.168l1.184-0.354v-0.158c0-2.416-1.104-3.626-3.312-3.626-1.076 0-2.232 0.238-3.468 0.71-1.234 0.474-2.652 1.236-4.256 2.286l-1.3-4.73c1.556-0.919 3.356-1.734 5.246-2.349l0.195-0.055c1.736-0.55 3.732-0.866 5.802-0.866 0.038 0 0.076 0 0.114 0l-0.006-0c2.522 0 4.454 0.684 5.794 2.050 1.366 1.366 2.048 3.704 2.048 7.014v7.488c0 0.578 0.12 0.998 0.356 1.26 0.236 0.238 0.616 0.356 1.14 0.356 0.5 0 1-0.066 1.5-0.198l0.236 4.65zM104.564 25.418c0 0.526 0.132 0.908 0.394 1.144 0.288 0.236 0.736 0.354 1.34 0.354 1.104 0 2.404-0.472 3.9-1.42v-4.176l-0.59 0.198c-1.97 0.708-3.31 1.34-4.020 1.89-0.682 0.526-1.024 1.196-1.024 2.010zM95.248 30.068c-0.813 0.559-1.758 1.004-2.772 1.284l-0.066 0.016c-0.943 0.27-2.028 0.429-3.148 0.436l-0.004 0c-2.784 0-4.86-0.606-6.226-1.814-1.366-1.234-2.050-2.994-2.050-5.28v-10.72h-3.35v-2.876l4.218-1.696 1.892-6.028h4.098v5.75h6.304v4.848h-6.304v9.064c0 1.392 0.222 2.378 0.67 2.956 0.446 0.578 1.116 0.866 2.010 0.866 1.156 0 2.378-0.34 3.664-1.024l1.064 4.216zM66.38 8.67c2.916 0 4.926 0.774 6.030 2.326 1.13 1.55 1.694 3.782 1.694 6.7v13.832h-6.856v-12.968c0-1.84-0.224-3.114-0.67-3.824-0.42-0.708-1.248-1.064-2.484-1.064-1.34 0-2.706 0.448-4.098 1.34v16.514h-6.856v-22.386h5.082l0.71 1.854c2.574-1.552 5.058-2.326 7.448-2.326zM34.056 21.596c0.132 1.866 0.592 3.244 1.38 4.138s1.996 1.34 3.626 1.34c0.027 0 0.059 0 0.091 0 1.174 0 2.295-0.232 3.318-0.652l-0.058 0.021c1.050-0.448 2.246-1.104 3.586-1.972l1.852 4.336c-1.392 1.13-2.772 1.944-4.14 2.444-1.364 0.5-2.928 0.748-4.688 0.748-2.6 0-4.78-0.5-6.54-1.498-1.762-1.024-3.076-2.404-3.942-4.138-0.84-1.76-1.26-3.756-1.26-5.99 0-3.546 0.996-6.384 2.994-8.512 1.996-2.128 4.912-3.192 8.748-3.192 3.048 0 5.36 0.828 6.936 2.482 1.602 1.63 2.418 3.954 2.444 6.976 0 1.182-0.172 2.34-0.512 3.468h-13.834zM41.742 17.142c0.026-0.156 0.040-0.366 0.040-0.63-0.028-1.076-0.316-1.892-0.868-2.444-0.552-0.578-1.314-0.866-2.286-0.866-2.312 0-3.756 1.314-4.334 3.94h7.448zM10.876 21.676h-3.782v9.852h-7.094v-26.8h10.72c3.836 0 6.634 0.658 8.394 1.972 1.76 1.286 2.64 3.322 2.64 6.108 0 3.626-1.328 6.056-3.98 7.29l7.526 11.43h-8.196l-6.228-9.852zM7.094 16.746h3.626c1.392 0 2.39-0.288 2.994-0.866 0.63-0.58 0.946-1.472 0.946-2.68 0-1.26-0.302-2.168-0.906-2.72-0.604-0.55-1.616-0.826-3.034-0.826h-3.626v7.092z"></path>
</symbol>
<symbol id="icon-heart" viewBox="0 0 34 32">
<path d="M17.066 2.803c9.468-9.732 33.139 7.298 0 29.197-33.139-21.897-9.468-38.929 0-29.197z"></path>
</symbol>
<symbol id="icon-arrow" viewBox="0 0 32 32">
<path d="M0.362 7.746c0.114-0.115 0.25-0.206 0.4-0.268s0.31-0.094 0.472-0.094c0.162 0 0.322 0.032 0.472 0.094s0.285 0.153 0.4 0.268l13.898 13.9 13.898-13.9c0.114-0.114 0.25-0.205 0.4-0.267s0.31-0.094 0.472-0.094c0.162 0 0.322 0.032 0.472 0.094s0.285 0.153 0.4 0.267 0.205 0.25 0.267 0.4c0.062 0.149 0.094 0.31 0.094 0.472s-0.032 0.322-0.094 0.472c-0.062 0.149-0.153 0.285-0.267 0.4l-14.769 14.769c-0.114 0.115-0.25 0.206-0.4 0.268s-0.31 0.094-0.472 0.094c-0.162 0-0.322-0.032-0.472-0.094s-0.285-0.153-0.4-0.268l-14.769-14.769c-0.115-0.114-0.206-0.25-0.268-0.4s-0.094-0.31-0.094-0.472c0-0.162 0.032-0.322 0.094-0.472s0.153-0.285 0.268-0.4z"></path>
</symbol>
<symbol id="icon-circle" viewBox="0 0 32 32">
<path d="M16 30c-3.713 0-7.274-1.475-9.899-4.101s-4.101-6.186-4.101-9.899 1.475-7.274 4.101-9.899c2.626-2.626 6.186-4.101 9.899-4.101s7.274 1.475 9.899 4.101c2.626 2.626 4.101 6.186 4.101 9.899s-1.475 7.274-4.101 9.899c-2.625 2.626-6.186 4.101-9.899 4.101zM16 32c4.243 0 8.313-1.686 11.314-4.686s4.686-7.070 4.686-11.314c0-4.243-1.686-8.313-4.686-11.314s-7.070-4.686-11.314-4.686c-4.243 0-8.313 1.686-11.314 4.686s-4.686 7.070-4.686 11.314c0 4.243 1.686 8.313 4.686 11.314s7.070 4.686 11.314 4.686z"></path>
<path d="M21.94 9.94l-0.040 0.044-6.946 8.85-4.186-4.188c-0.284-0.265-0.66-0.409-1.049-0.402s-0.759 0.164-1.034 0.439c-0.275 0.275-0.432 0.646-0.439 1.034s0.137 0.765 0.402 1.049l5.292 5.294c0.143 0.142 0.312 0.254 0.499 0.33s0.387 0.112 0.588 0.108c0.201-0.004 0.4-0.048 0.584-0.13s0.349-0.2 0.487-0.348l7.984-9.98c0.272-0.285 0.42-0.666 0.414-1.060s-0.168-0.77-0.45-1.046c-0.282-0.276-0.66-0.43-1.054-0.429s-0.772 0.157-1.052 0.435z"></path>
</symbol>
<symbol id="icon-gear" viewBox="0 0 32 32">
<path d="M16 9.508c-0.853 0-1.697 0.168-2.484 0.494s-1.503 0.804-2.106 1.407c-0.603 0.603-1.081 1.319-1.407 2.106s-0.494 1.632-0.494 2.484c0 0.853 0.168 1.697 0.494 2.484s0.804 1.503 1.407 2.106c0.603 0.603 1.319 1.081 2.106 1.407s1.632 0.494 2.484 0.494c1.722 0 3.373-0.684 4.591-1.901s1.901-2.869 1.901-4.591-0.684-3.373-1.901-4.591c-1.218-1.217-2.869-1.901-4.591-1.901zM11.508 16c0-1.191 0.473-2.334 1.316-3.176s1.985-1.316 3.176-1.316c1.191 0 2.334 0.473 3.176 1.316s1.316 1.985 1.316 3.176-0.473 2.334-1.316 3.176c-0.842 0.842-1.985 1.316-3.176 1.316s-2.334-0.473-3.176-1.316c-0.842-0.842-1.316-1.985-1.316-3.176z"></path>
<path d="M19.592 2.686c-1.054-3.58-6.13-3.58-7.184 0l-0.188 0.638c-0.074 0.25-0.202 0.48-0.376 0.674s-0.389 0.346-0.63 0.446c-0.241 0.1-0.501 0.144-0.761 0.131s-0.514-0.086-0.743-0.21l-0.584-0.32c-3.28-1.784-6.866 1.804-5.080 5.082l0.318 0.584c0.125 0.229 0.196 0.483 0.21 0.743s-0.031 0.52-0.131 0.761c-0.1 0.241-0.252 0.456-0.446 0.63s-0.424 0.303-0.674 0.376l-0.638 0.188c-3.58 1.054-3.58 6.13 0 7.184l0.638 0.188c0.25 0.074 0.48 0.202 0.674 0.376s0.346 0.389 0.446 0.63c0.1 0.241 0.144 0.501 0.131 0.761s-0.086 0.514-0.21 0.743l-0.32 0.584c-1.784 3.28 1.802 6.868 5.082 5.080l0.584-0.318c0.229-0.125 0.483-0.196 0.743-0.21s0.52 0.031 0.761 0.13c0.241 0.1 0.456 0.252 0.63 0.446s0.303 0.424 0.376 0.674l0.188 0.638c1.054 3.58 6.13 3.58 7.184 0l0.188-0.638c0.074-0.25 0.202-0.48 0.376-0.674s0.389-0.346 0.63-0.446c0.241-0.1 0.501-0.144 0.761-0.13s0.514 0.086 0.743 0.21l0.584 0.32c3.28 1.786 6.868-1.804 5.080-5.082l-0.318-0.584c-0.125-0.229-0.196-0.483-0.21-0.743s0.031-0.52 0.13-0.761c0.1-0.241 0.252-0.456 0.446-0.63s0.424-0.303 0.674-0.376l0.638-0.188c3.58-1.054 3.58-6.13 0-7.184l-0.638-0.188c-0.25-0.074-0.48-0.202-0.674-0.376s-0.346-0.389-0.446-0.63c-0.1-0.241-0.144-0.501-0.13-0.761s0.086-0.514 0.21-0.743l0.32-0.584c1.786-3.28-1.804-6.866-5.082-5.080l-0.584 0.318c-0.229 0.125-0.483 0.196-0.743 0.21s-0.52-0.031-0.761-0.131c-0.241-0.1-0.456-0.252-0.63-0.446s-0.303-0.424-0.376-0.674l-0.188-0.638zM14.326 3.252c0.492-1.67 2.856-1.67 3.348 0l0.188 0.638c0.158 0.536 0.434 1.030 0.808 1.446s0.836 0.742 1.352 0.956c0.516 0.214 1.074 0.309 1.632 0.28s1.103-0.184 1.593-0.452l0.582-0.32c1.528-0.83 3.2 0.84 2.368 2.37l-0.318 0.584c-0.267 0.491-0.421 1.035-0.45 1.593s0.066 1.116 0.28 1.632c0.214 0.516 0.541 0.978 0.957 1.352s0.91 0.649 1.446 0.807l0.636 0.188c1.67 0.492 1.67 2.856 0 3.348l-0.638 0.188c-0.536 0.158-1.030 0.434-1.446 0.808s-0.742 0.836-0.956 1.352c-0.214 0.516-0.309 1.074-0.28 1.632s0.184 1.103 0.452 1.593l0.32 0.582c0.83 1.528-0.84 3.2-2.37 2.368l-0.582-0.318c-0.491-0.268-1.036-0.422-1.594-0.451s-1.116 0.066-1.633 0.28c-0.517 0.214-0.979 0.541-1.352 0.957s-0.65 0.91-0.807 1.446l-0.188 0.636c-0.492 1.67-2.856 1.67-3.348 0l-0.188-0.638c-0.158-0.536-0.434-1.030-0.808-1.445s-0.835-0.742-1.352-0.956c-0.516-0.214-1.074-0.309-1.632-0.28s-1.102 0.184-1.593 0.451l-0.584 0.32c-1.528 0.83-3.2-0.84-2.368-2.37l0.318-0.582c0.268-0.491 0.423-1.036 0.452-1.594s-0.066-1.116-0.279-1.633c-0.214-0.517-0.541-0.979-0.957-1.353s-0.91-0.65-1.447-0.808l-0.638-0.188c-1.67-0.492-1.67-2.856 0-3.348l0.638-0.188c0.536-0.158 1.029-0.434 1.444-0.808s0.742-0.835 0.955-1.351c0.214-0.516 0.309-1.073 0.28-1.631s-0.183-1.102-0.45-1.592l-0.32-0.584c-0.83-1.528 0.84-3.2 2.37-2.368l0.584 0.318c0.491 0.267 1.035 0.421 1.593 0.451s1.115-0.066 1.632-0.28c0.516-0.214 0.978-0.54 1.352-0.956s0.65-0.909 0.808-1.445l0.188-0.638z"></path>
</symbol>
<symbol id="icon-fuel_pump" viewBox="0 0 32 32">
<path d="M6 5c0-0.265 0.105-0.52 0.293-0.707s0.442-0.293 0.707-0.293h10c0.265 0 0.52 0.105 0.707 0.293s0.293 0.442 0.293 0.707v10c0 0.265-0.105 0.52-0.293 0.707s-0.442 0.293-0.707 0.293h-10c-0.265 0-0.52-0.105-0.707-0.293s-0.293-0.442-0.293-0.707v-10z"></path>
<path d="M2 4c0-1.061 0.421-2.078 1.172-2.828s1.768-1.172 2.828-1.172h12c1.061 0 2.078 0.421 2.828 1.172s1.172 1.768 1.172 2.828v16c1.061 0 2.078 0.421 2.828 1.172s1.172 1.768 1.172 2.828v1c0 0.265 0.105 0.52 0.293 0.707s0.442 0.293 0.707 0.293 0.52-0.105 0.707-0.293c0.187-0.188 0.293-0.442 0.293-0.707v-9h-1c-0.265 0-0.52-0.105-0.707-0.293s-0.293-0.442-0.293-0.707v-6.25c0-0.265 0.105-0.52 0.293-0.707s0.442-0.293 0.707-0.293h2.99c-0.022-0.952-0.106-1.788-0.402-2.444-0.158-0.381-0.435-0.702-0.788-0.916-0.368-0.22-0.928-0.39-1.8-0.39-0.265 0-0.52-0.105-0.707-0.293s-0.293-0.442-0.293-0.707 0.105-0.52 0.293-0.707c0.188-0.188 0.442-0.293 0.707-0.293 1.128-0.003 2.069 0.221 2.824 0.672 0.766 0.456 1.268 1.102 1.588 1.814 0.59 1.31 0.588 2.93 0.588 4.162v6.35c0 0.131-0.025 0.262-0.076 0.383s-0.124 0.232-0.217 0.325-0.203 0.167-0.325 0.217c-0.122 0.050-0.252 0.076-0.383 0.076h-1v9c0 0.796-0.316 1.559-0.879 2.121s-1.326 0.879-2.121 0.879c-0.796 0-1.559-0.316-2.121-0.879s-0.879-1.326-0.879-2.121v-1c0-0.53-0.211-1.039-0.586-1.414s-0.884-0.586-1.414-0.586v8h1c0.265 0 0.52 0.105 0.707 0.293s0.293 0.442 0.293 0.707-0.105 0.52-0.293 0.707c-0.188 0.187-0.442 0.293-0.707 0.293h-22c-0.265 0-0.52-0.105-0.707-0.293s-0.293-0.442-0.293-0.707 0.105-0.52 0.293-0.707c0.188-0.187 0.442-0.293 0.707-0.293h1v-26zM20 4c0-0.53-0.211-1.039-0.586-1.414s-0.884-0.586-1.414-0.586h-12c-0.53 0-1.039 0.211-1.414 0.586s-0.586 0.884-0.586 1.414v26h16v-26z"></path>
</symbol>
<symbol id="icon-car" viewBox="0 0 32 32">
<path d="M8 18c0 0.53-0.211 1.039-0.586 1.414s-0.884 0.586-1.414 0.586c-0.53 0-1.039-0.211-1.414-0.586s-0.586-0.884-0.586-1.414c0-0.53 0.211-1.039 0.586-1.414s0.884-0.586 1.414-0.586c0.53 0 1.039 0.211 1.414 0.586s0.586 0.884 0.586 1.414zM28 18c0 0.53-0.211 1.039-0.586 1.414s-0.884 0.586-1.414 0.586c-0.53 0-1.039-0.211-1.414-0.586s-0.586-0.884-0.586-1.414c0-0.53 0.211-1.039 0.586-1.414s0.884-0.586 1.414-0.586c0.53 0 1.039 0.211 1.414 0.586s0.586 0.884 0.586 1.414zM12 16c-0.53 0-1.039 0.211-1.414 0.586s-0.586 0.884-0.586 1.414c0 0.53 0.211 1.039 0.586 1.414s0.884 0.586 1.414 0.586h8c0.53 0 1.039-0.211 1.414-0.586s0.586-0.884 0.586-1.414c0-0.53-0.211-1.039-0.586-1.414s-0.884-0.586-1.414-0.586h-8zM9.724 8.552l-1.912 3.828c-0.078 0.161-0.112 0.34-0.099 0.519s0.073 0.351 0.174 0.499c0.101 0.148 0.239 0.267 0.4 0.345s0.341 0.112 0.519 0.098c1.82-0.146 4.7-0.34 7.194-0.34s5.376 0.194 7.194 0.34c0.179 0.013 0.358-0.021 0.519-0.098s0.299-0.197 0.4-0.345 0.161-0.32 0.174-0.499c0.013-0.179-0.021-0.358-0.099-0.519l-1.912-3.826c-0.083-0.166-0.21-0.306-0.368-0.404s-0.34-0.15-0.526-0.15h-10.764c-0.186 0-0.367 0.052-0.525 0.149s-0.286 0.237-0.369 0.403z"></path>
<path d="M5.040 7.030c0.386-0.9 1.027-1.667 1.845-2.206s1.776-0.825 2.755-0.824h12.724c2 0 3.808 1.192 4.596 3.030l1.584 3.696c0.15 0.35 0.42 0.638 0.76 0.808 1 0.5 1.71 1.43 1.93 2.524l0.67 3.358c0.067 0.323 0.099 0.649 0.098 0.98v0.826c0 1.628-0.78 3.086-2 3.994v3.784c0 0.265-0.105 0.52-0.293 0.707s-0.442 0.293-0.707 0.293h-4c-0.265 0-0.52-0.105-0.707-0.293s-0.293-0.442-0.293-0.707v-2.676c-2.584 0.096-5.49 0.176-8 0.176s-5.416-0.080-8-0.176v2.676c0 0.265-0.105 0.52-0.293 0.707s-0.442 0.293-0.707 0.293h-4c-0.265 0-0.52-0.105-0.707-0.293s-0.293-0.442-0.293-0.707v-3.784c-1.22-0.908-2-2.366-2-3.994v-0.826c0-0.329 0.033-0.657 0.098-0.98l0.67-3.36c0.22-1.092 0.93-2.024 1.928-2.522 0.342-0.17 0.613-0.456 0.762-0.808l1.584-3.696h-0.004zM9.64 6c-0.587 0-1.162 0.173-1.652 0.496s-0.875 0.784-1.106 1.324l-1.584 3.694c-0.336 0.786-0.941 1.427-1.706 1.808-0.22 0.109-0.413 0.268-0.562 0.463s-0.251 0.423-0.298 0.665l-0.672 3.358c-0.039 0.194-0.059 0.39-0.060 0.588v0.826c0 1.592 1.24 2.896 2.816 2.968 3.11 0.14 7.572 0.31 11.184 0.31s8.074-0.168 11.184-0.31c0.761-0.037 1.479-0.366 2.003-0.919s0.816-1.287 0.813-2.049v-0.826c0-0.197-0.020-0.393-0.060-0.588l-0.67-3.36c-0.047-0.241-0.149-0.468-0.299-0.663s-0.341-0.354-0.561-0.463c-0.765-0.381-1.37-1.022-1.706-1.808l-1.584-3.696c-0.231-0.54-0.616-1-1.107-1.323s-1.065-0.495-1.653-0.495h-12.72z"></path>
</symbol>
<symbol id="icon-calendar" viewBox="0 0 32 32">
<path d="M7 0c0.265 0 0.52 0.105 0.707 0.293s0.293 0.442 0.293 0.707v1h16v-1c0-0.265 0.105-0.52 0.293-0.707s0.442-0.293 0.707-0.293 0.52 0.105 0.707 0.293c0.187 0.188 0.293 0.442 0.293 0.707v1h2c1.061 0 2.078 0.421 2.828 1.172s1.172 1.768 1.172 2.828v22c0 1.061-0.421 2.078-1.172 2.828s-1.768 1.172-2.828 1.172h-24c-1.061 0-2.078-0.421-2.828-1.172s-1.172-1.768-1.172-2.828v-22c0-1.061 0.421-2.078 1.172-2.828s1.768-1.172 2.828-1.172h2v-1c0-0.265 0.105-0.52 0.293-0.707s0.442-0.293 0.707-0.293zM4 4c-0.53 0-1.039 0.211-1.414 0.586s-0.586 0.884-0.586 1.414v22c0 0.53 0.211 1.039 0.586 1.414s0.884 0.586 1.414 0.586h24c0.53 0 1.039-0.211 1.414-0.586s0.586-0.884 0.586-1.414v-22c0-0.53-0.211-1.039-0.586-1.414s-0.884-0.586-1.414-0.586h-24z"></path>
<path d="M5 8c0-0.265 0.105-0.52 0.293-0.707s0.442-0.293 0.707-0.293h20c0.265 0 0.52 0.105 0.707 0.293s0.293 0.442 0.293 0.707v2c0 0.265-0.105 0.52-0.293 0.707s-0.442 0.293-0.707 0.293h-20c-0.265 0-0.52-0.105-0.707-0.293s-0.293-0.442-0.293-0.707v-2zM22 15c0-0.265 0.105-0.52 0.293-0.707s0.442-0.293 0.707-0.293h2c0.265 0 0.52 0.105 0.707 0.293s0.293 0.442 0.293 0.707v2c0 0.265-0.105 0.52-0.293 0.707s-0.442 0.293-0.707 0.293h-2c-0.265 0-0.52-0.105-0.707-0.293s-0.293-0.442-0.293-0.707v-2zM16 15c0-0.265 0.105-0.52 0.293-0.707s0.442-0.293 0.707-0.293h2c0.265 0 0.52 0.105 0.707 0.293s0.293 0.442 0.293 0.707v2c0 0.265-0.105 0.52-0.293 0.707s-0.442 0.293-0.707 0.293h-2c-0.265 0-0.52-0.105-0.707-0.293s-0.293-0.442-0.293-0.707v-2zM6 21c0-0.265 0.105-0.52 0.293-0.707s0.442-0.293 0.707-0.293h2c0.265 0 0.52 0.105 0.707 0.293s0.293 0.442 0.293 0.707v2c0 0.265-0.105 0.52-0.293 0.707s-0.442 0.293-0.707 0.293h-2c-0.265 0-0.52-0.105-0.707-0.293s-0.293-0.442-0.293-0.707v-2zM12 21c0-0.265 0.105-0.52 0.293-0.707s0.442-0.293 0.707-0.293h2c0.265 0 0.52 0.105 0.707 0.293s0.293 0.442 0.293 0.707v2c0 0.265-0.105 0.52-0.293 0.707s-0.442 0.293-0.707 0.293h-2c-0.265 0-0.52-0.105-0.707-0.293s-0.293-0.442-0.293-0.707v-2z"></path>
</symbol>
<symbol id="icon-location" viewBox="0 0 32 32">
<path d="M23.532 17.88c-1.048 2.124-2.468 4.24-3.92 6.14-1.379 1.79-2.852 3.506-4.412 5.14-1.56-1.634-3.033-3.35-4.412-5.14-1.452-1.9-2.872-4.016-3.92-6.14-1.060-2.146-1.668-4.156-1.668-5.88 0-2.652 1.054-5.196 2.929-7.071s4.419-2.929 7.071-2.929c2.652 0 5.196 1.054 7.071 2.929s2.929 4.419 2.929 7.071c0 1.724-0.61 3.734-1.668 5.88zM15.2 32c0 0 12-11.372 12-20 0-3.183-1.264-6.235-3.515-8.485s-5.303-3.515-8.485-3.515-6.235 1.264-8.485 3.515c-2.25 2.25-3.515 5.303-3.515 8.485 0 8.628 12 20 12 20z"></path>
<path d="M15.2 16c-1.061 0-2.078-0.421-2.828-1.172s-1.172-1.768-1.172-2.828c0-1.061 0.421-2.078 1.172-2.828s1.768-1.172 2.828-1.172c1.061 0 2.078 0.421 2.828 1.172s1.172 1.768 1.172 2.828c0 1.061-0.421 2.078-1.172 2.828s-1.768 1.172-2.828 1.172zM15.2 18c1.591 0 3.117-0.632 4.243-1.757s1.757-2.651 1.757-4.243c0-1.591-0.632-3.117-1.757-4.243s-2.651-1.757-4.243-1.757c-1.591 0-3.117 0.632-4.243 1.757s-1.757 2.651-1.757 4.243c0 1.591 0.632 3.117 1.757 4.243s2.651 1.757 4.243 1.757z"></path>
</symbol>
</defs>
</svg>
